<svg width="120" height="120" viewBox="0 0 120 120" fill="none" xmlns="http://www.w3.org/2000/svg">
<g clip-path="url(#clip0_905_6166)">
<path fill-rule="evenodd" clip-rule="evenodd" d="M30.7029 16.9883C39.4736 11.1279 49.785 8 60.3334 8C74.4782 8 88.0438 13.619 98.0457 23.621C108.048 33.6229 113.667 47.1885 113.667 61.3333C113.667 71.8817 110.539 82.1931 104.678 90.9638C98.8181 99.7344 90.4885 106.57 80.7431 110.607C70.9977 114.644 60.2742 115.7 49.9285 113.642C39.5829 111.584 30.0798 106.505 22.621 99.0457C15.1622 91.5869 10.0827 82.0838 8.02481 71.7382C5.96693 61.3925 7.02311 50.6689 11.0598 40.9235C15.0965 31.1782 21.9323 22.8486 30.7029 16.9883ZM90.1999 48.9336C90.1999 52.2473 87.5137 54.9336 84.2 54.9336C80.8862 54.9336 78.2 52.2473 78.2 48.9336C78.2 45.6199 80.8862 42.9336 84.2 42.9336C87.5137 42.9336 90.1999 45.6199 90.1999 48.9336ZM38.3667 54.9336C41.6804 54.9336 44.3667 52.2473 44.3667 48.9336C44.3667 45.6199 41.6804 42.9336 38.3667 42.9336C35.053 42.9336 32.3667 45.6199 32.3667 48.9336C32.3667 52.2473 35.053 54.9336 38.3667 54.9336ZM47.1216 71.3366C51.3718 69.1448 56.0844 68.0008 60.8665 68C65.5323 67.9987 70.1341 69.0857 74.3061 71.1746C78.4782 73.2636 82.1055 76.2968 84.8998 80.0333C85.4303 80.7406 85.658 81.6296 85.533 82.5047C85.408 83.3799 84.9404 84.1696 84.2332 84.7C83.5259 85.2304 82.6369 85.4582 81.7617 85.3332C80.8866 85.2081 80.0969 84.7406 79.5665 84.0333C77.3669 81.0895 74.5031 78.7068 71.2083 77.0793C67.9135 75.4518 64.2809 74.6255 60.6063 74.6678C56.9318 74.71 53.3191 75.6195 50.0626 77.3223C46.8061 79.0251 43.9978 81.473 41.8665 84.4667C41.3537 85.1872 40.5758 85.6745 39.7037 85.8214C38.8317 85.9683 37.937 85.7627 37.2165 85.25C36.496 84.7372 36.0087 83.9593 35.8618 83.0872C35.7149 82.2152 35.9204 81.3205 36.4332 80.6C39.2067 76.7045 42.8714 73.5284 47.1216 71.3366Z" fill="white"/>
</g>
<defs>
<clipPath id="clip0_905_6166">
<rect width="120" height="120" fill="white"/>
</clipPath>
</defs>
</svg>
