<svg width="199" height="105" viewBox="0 0 199 105" fill="none" xmlns="http://www.w3.org/2000/svg">
<g filter="url(#filter0_d_941_12299)">
<path d="M48.0129 53.694C48.5249 53.5593 48.6689 53.8464 48.4448 54.5554C48.2325 55.2442 47.8746 55.8345 47.371 56.3262C47.1925 56.4929 47.0253 56.6053 46.8695 56.6634C44.5664 57.3377 42.5496 57.9623 40.819 58.5373C41.8679 62.9145 42.7803 66.4808 43.5565 69.2361C43.5977 69.3279 43.6798 69.6399 43.8027 70.1721C43.9256 70.7043 44.0586 71.2424 44.2017 71.7864C44.3448 72.3304 44.5022 72.8963 44.6739 73.4841C44.8617 74.0677 45.0582 74.5548 45.2637 74.9456C45.4691 75.3363 45.6623 75.5506 45.8434 75.5885C46.3099 75.6711 46.3595 76.1199 45.9923 76.935C45.6444 77.6937 45.2095 78.2187 44.6873 78.51C44.508 78.6085 44.3459 78.6426 44.201 78.6123C43.8592 78.5483 43.5287 78.2674 43.2096 77.7697C42.9065 77.2678 42.6758 76.781 42.5175 76.3095C42.3795 75.8497 42.2115 75.2438 42.0137 74.4918C41.8319 73.7356 41.7246 73.3276 41.6917 73.2678C40.8339 70.3971 39.7539 66.259 38.4517 60.8536C38.4257 60.6894 38.3726 60.4553 38.2927 60.1513C38.2287 59.8431 38.1778 59.617 38.1399 59.473C37.0056 59.9083 35.9214 60.3389 34.8872 60.7649C34.7119 62.8296 34.5509 64.5913 34.4042 66.0497C34.3234 66.6526 34.2433 67.4863 34.164 68.5507C34.0806 69.599 34.0072 70.4908 33.944 71.2259C33.8808 71.961 33.7813 72.8511 33.6456 73.8961C33.5218 74.9209 33.3743 75.8236 33.2033 76.6042C33.0483 77.3806 32.8259 78.226 32.5361 79.1404C32.2506 80.0709 31.9175 80.8856 31.5368 81.5845C31.1763 82.2951 30.7215 83.005 30.1724 83.714C29.6393 84.4187 29.033 85.0401 28.3534 85.5781C27.4472 86.2955 26.4653 86.8874 25.4076 87.3538C24.3702 87.832 23.2906 88.1502 22.1689 88.3084C21.0633 88.4624 19.9783 88.3373 18.9139 87.933C17.8656 87.5245 16.9701 86.8191 16.2275 85.817C15.6726 85.0734 15.2693 84.2557 15.0176 83.3639C14.7659 82.4721 14.6608 81.5846 14.7021 80.7012C14.7392 79.8019 14.8606 78.8975 15.0661 77.9881C15.2877 77.0745 15.5998 76.1798 16.0024 75.3041C16.4167 74.4082 16.848 73.5762 17.296 72.8083C17.7441 72.0404 18.2368 71.312 18.7741 70.6233C22.0434 66.2734 26.727 62.5523 32.8247 59.4599C32.9234 58.0141 33.0262 56.5842 33.1333 55.1704C33.2977 52.869 33.5284 49.4212 33.8252 44.8268C33.8345 44.602 33.8421 44.2408 33.848 43.7431C33.87 43.2412 33.889 42.8257 33.905 42.4964C33.921 42.1672 33.9686 41.7954 34.0478 41.3811C34.143 40.9626 34.2731 40.6119 34.4382 40.329C34.6538 39.913 34.992 39.5076 35.4526 39.1127C35.9411 38.6934 36.2699 38.6753 36.4391 39.0585C36.7136 39.8416 36.8937 40.4614 36.9796 40.9178C37.0814 41.37 37.198 42.0407 37.3292 42.93C37.4723 43.799 37.5885 44.4356 37.6777 44.8398C38.511 48.6579 39.3742 52.4595 40.2673 56.2447C42.6201 55.3692 45.202 54.5189 48.0129 53.694ZM30.3585 79.739C31.5699 73.8092 32.3372 67.8166 32.6603 61.7613C25.3828 65.1811 20.5762 69.3452 18.2407 74.2534C17.7985 75.1737 17.4894 76.1446 17.3133 77.166C17.1532 78.1833 17.1354 79.1887 17.26 80.1823C17.3845 81.176 17.7288 82.0947 18.2929 82.9386C18.873 83.7782 19.6494 84.4207 20.6219 84.8663C21.2349 85.1156 21.8648 85.2664 22.5115 85.3187C23.1624 85.3869 23.8041 85.355 24.4365 85.2228C25.0731 85.1067 25.6866 84.9025 26.2769 84.6104C27.594 84.0244 28.5233 83.3951 29.0648 82.7223C29.6265 82.0613 30.0577 81.0669 30.3585 79.739ZM37.6374 57.2701C36.9943 54.5653 36.3773 51.8622 35.7864 49.1608C35.5874 52.2411 35.3602 55.3117 35.1047 58.3726C36.0066 57.9643 36.8508 57.5968 37.6374 57.2701ZM55.2905 65.5849C55.4682 65.0249 55.7773 64.5416 56.2178 64.1349C56.4915 63.8747 56.6515 63.8326 56.6978 64.0086C56.7112 64.1248 56.6636 64.3341 56.555 64.6364C56.3536 65.2368 56.181 65.7184 56.0369 66.0813C55.9047 66.4241 55.7135 66.8678 55.4634 67.4126C55.209 67.9414 54.9277 68.4003 54.6195 68.7893C54.3112 69.1783 53.9782 69.5055 53.6203 69.7707C53.0038 70.2237 52.4872 70.3082 52.0704 70.0244C51.6654 69.7204 51.4061 69.1899 51.2925 68.4328C51.2538 68.2206 51.2315 67.8758 51.2256 67.3983C51.2156 66.9049 51.1971 66.5419 51.1702 66.3095C51.139 66.0611 51.0325 65.7213 50.8507 65.2902C50.7362 65.115 50.5939 64.9642 50.4238 64.8379C50.2495 64.6956 50.0596 64.5916 49.8542 64.5259C49.6487 64.4602 49.4474 64.4105 49.2504 64.3768C49.0492 64.3271 48.8298 64.2736 48.5923 64.2163C48.3507 64.143 48.1431 64.0693 47.9696 63.9952L47.9633 63.9712C47.7427 64.303 47.5338 64.6145 47.3367 64.9058C46.8668 65.5256 46.5535 65.6678 46.3969 65.3327C46.2403 64.9975 46.2972 64.5634 46.5676 64.0304C46.6223 63.9134 46.6872 63.8022 46.7621 63.697C46.8135 63.6322 46.8944 63.5168 47.0047 63.3509C46.0642 62.5719 45.4963 61.5837 45.301 60.3862C45.1975 59.7976 45.2607 59.0625 45.4907 58.1809C45.7325 57.279 46.103 56.5742 46.6024 56.0665C47.1178 55.5546 47.77 55.5626 48.559 56.0907C49.9727 57.1729 50.1856 58.9901 49.1976 61.5423C49.4763 61.6914 49.8494 61.8413 50.3167 61.9921C50.784 62.1429 51.1507 62.2688 51.4168 62.3699C51.6829 62.471 51.9524 62.6823 52.2252 63.004C52.4938 63.3097 52.6794 63.7228 52.7821 64.2432C52.8292 64.4874 52.8586 64.9245 52.8704 65.5543C52.8779 66.1682 52.9296 66.625 53.0256 66.9248C53.3674 67.964 53.8718 68.028 54.5388 67.117C54.89 66.6311 55.1406 66.1204 55.2905 65.5849ZM47.97 60.5823C48.0045 60.1284 47.9351 59.7019 47.7617 59.3027C47.5571 58.9802 47.3129 58.7023 47.0291 58.469C47.0653 58.8016 47.0855 58.9759 47.0897 58.9919C47.2614 59.5797 47.5549 60.1098 47.97 60.5823ZM64.8067 60.7464C65.2085 60.1276 65.5685 59.8703 65.8868 59.9748C66.1849 60.0674 66.2307 60.3718 66.0244 60.888L65.8071 61.3301C65.4921 61.8235 65.1708 62.2929 64.8432 62.7384C64.5316 63.1796 64.1307 63.7042 63.6406 64.3121C63.1462 64.904 62.6447 65.4038 62.1361 65.8113C61.6274 66.2188 61.088 66.5745 60.5179 66.8785C59.9436 67.1664 59.3592 67.2859 58.7647 67.237C58.166 67.1721 57.5892 66.9304 57.0343 66.5118C56.4954 66.0891 56.1258 65.5619 55.9254 64.9303C55.7251 64.2987 55.6788 63.6352 55.7867 62.9396C55.8945 62.2441 56.0571 61.594 56.2744 60.9894C56.5035 60.3646 56.789 59.7592 57.131 59.1731C57.6026 58.3648 58.1955 57.6272 58.9096 56.9603C60.0246 55.9314 60.7017 56.0014 60.9407 57.1702C61.125 58.131 60.9485 59.2809 60.4111 60.6197C59.8695 61.9426 59.1693 63.0848 58.3103 64.0463C58.5578 64.272 58.8268 64.4493 59.1173 64.5782C60.8755 65.279 62.772 64.0017 64.8067 60.7464ZM57.7384 60.6043C57.4545 61.3462 57.4157 62.1091 57.622 62.8931C57.8241 62.6859 58.102 62.2792 58.4557 61.673C58.8095 61.0667 59.0769 60.4575 59.258 59.8453C59.4509 59.2129 59.4202 58.8361 59.1659 58.7148C58.9924 58.6407 58.797 58.7434 58.5798 59.023C58.3625 59.3025 58.1894 59.5875 58.0605 59.8781C57.9275 60.1526 57.8201 60.3946 57.7384 60.6043ZM77.573 51.7942C77.6261 51.5407 77.9078 51.6035 78.418 51.9825C79.042 52.4684 79.348 52.884 79.3362 53.2292C79.1264 54.4477 78.9874 55.7074 78.919 57.0084C78.8625 58.2892 78.875 59.6374 78.9565 61.0529C79.0541 62.4642 79.158 63.7371 79.2682 64.8713C79.3944 66.0014 79.5896 67.3614 79.8539 68.9512C80.1383 70.5529 80.3643 71.8021 80.5318 72.699C80.7195 73.6076 80.9821 74.8985 81.3196 76.5717C81.4257 77.0399 81.5002 77.3881 81.5431 77.6164C81.6155 77.9566 81.3949 77.9633 80.8812 77.6365C80.2741 77.2146 79.9184 76.8377 79.814 76.5059C79.2804 73.8921 78.9067 72.0487 78.6929 70.9759C78.4791 69.9031 78.2043 68.2732 77.8685 66.0863C77.553 63.9112 77.3405 61.9656 77.2312 60.2494C75.8777 63.1031 74.2962 64.3745 72.4866 64.0636C72.0925 63.9962 71.7498 63.8639 71.4585 63.6669C71.1629 63.4538 70.9288 63.1818 70.7562 62.8508C70.5794 62.5039 70.4367 62.1565 70.3281 61.8087C70.2036 61.4651 70.1362 61.0466 70.1262 60.5532C70.1119 60.0437 70.1006 59.6105 70.0922 59.2534C70.0796 58.8804 70.1062 58.4286 70.1719 57.8981C70.2376 57.3676 70.2869 56.9697 70.3198 56.7045C70.3526 56.4392 70.4045 56.0835 70.4752 55.6372C70.4904 55.5647 70.5018 55.5104 70.5094 55.4742C70.5169 55.438 70.5224 55.3938 70.5258 55.3416C70.5292 55.2894 70.5346 55.2452 70.5422 55.209C70.5751 54.9437 70.8568 55.0065 71.3872 55.3973C72.0272 55.879 72.3332 56.2946 72.3054 56.644C72.1226 57.7699 72.01 58.9029 71.9678 60.043C71.9417 60.5289 71.9336 61.0186 71.9437 61.512C71.9866 61.7402 72.0687 61.8897 72.19 61.9605C72.307 62.0152 72.4093 62.014 72.4969 61.9567L72.6523 61.8645C73.3218 61.4831 73.8873 60.9666 74.3488 60.3148C75.9186 58.4136 76.9933 55.5734 77.573 51.7942ZM93.0221 48.6539C93.348 48.3971 93.5287 48.4009 93.564 48.6654C93.6128 49.046 93.4587 49.5655 93.1016 50.224C92.9601 50.4665 92.8316 50.6286 92.7163 50.7103C91.4286 51.7333 90.0758 52.6708 88.6576 53.5228C89.4988 54.7043 89.771 55.9671 89.4745 57.311C89.194 58.6507 88.4718 59.8072 87.3079 60.7805C86.7041 61.2815 86.0498 61.5905 85.345 61.7075C84.6359 61.8085 83.9572 61.7646 83.3089 61.5759C82.6605 61.3873 82.0584 61.0495 81.5027 60.5628C80.9428 60.06 80.5121 59.4633 80.2107 58.7728C79.7855 57.8069 79.7204 56.7463 80.0152 55.591C80.3101 54.4357 80.7939 53.3162 81.4668 52.2325C81.5182 52.1677 81.6062 52.1445 81.7308 52.1631C81.9827 51.4297 82.4333 50.8663 83.0825 50.4732C83.4017 50.3208 83.7541 50.2623 84.1398 50.2977C84.5254 50.3331 84.9162 50.4527 85.3119 50.6565C85.7035 50.8443 86.0794 51.0705 86.4398 51.3349C86.8002 51.5994 87.1509 51.892 87.4919 52.2129C89.4784 51.2455 91.3219 50.0592 93.0221 48.6539ZM86.5205 52.5197C86.2166 52.2746 85.8739 52.1424 85.4924 52.123C85.1067 52.0876 84.7484 52.1562 84.4175 52.3288C85.0919 52.6817 85.793 52.7453 86.5205 52.5197ZM85.3882 59.3354C86.1478 58.7763 86.7907 58.0341 87.3171 57.1087C87.8595 56.1791 88.0613 55.2878 87.9224 54.4347C87.8845 54.2907 87.8387 54.1488 87.7848 54.009C85.4841 55.213 83.805 55.3981 82.7474 54.5643C82.3078 55.3643 81.9852 56.219 81.7796 57.1284C81.6845 57.5469 81.6187 57.9149 81.5825 58.2323C81.558 58.5296 81.6102 58.858 81.739 59.2176C81.8678 59.5771 82.1036 59.823 82.4463 59.9553C83.5334 60.251 84.514 60.0443 85.3882 59.3354ZM103.503 52.0041C103.68 52.026 103.773 52.1212 103.783 52.2896C103.809 52.4538 103.799 52.6104 103.753 52.7595C103.723 52.9043 103.674 53.0453 103.608 53.1826C103.447 53.4815 103.272 53.7926 103.083 54.116C102.911 54.4351 102.659 54.8435 102.328 55.3411C101.997 55.8388 101.669 56.2501 101.344 56.5751C101.014 56.8841 100.673 57.1451 100.318 57.3581C99.9593 57.5551 99.6124 57.5694 99.2772 57.401C98.9379 57.2165 98.6445 56.8489 98.397 56.2982C98.1579 55.7795 97.9886 55.2338 97.8893 54.6612C97.5398 55.6085 97.0488 56.4732 96.4163 57.2555C96.1274 57.5881 95.81 57.8769 95.4638 58.1219C95.1295 58.3467 94.7438 58.4738 94.3068 58.5032C93.8815 58.5124 93.5203 58.3423 93.2231 57.9928C92.8897 57.6357 92.6346 57.1212 92.4578 56.4492C92.265 55.7814 92.1514 55.1869 92.1169 54.6657C92.0664 54.1486 92.0299 53.4569 92.0072 52.5904C91.9963 51.7037 91.9817 51.1601 91.9632 50.9597C91.9548 50.6026 92.2058 50.1261 92.7161 49.5299C93.1987 48.9582 93.5077 48.7999 93.6433 49.0551C93.6761 49.1149 93.6929 49.1789 93.6938 49.2471C93.7089 49.4997 93.7257 49.8887 93.7442 50.4142C93.7627 50.9396 93.7757 51.3468 93.7832 51.6356C93.8068 51.9202 93.8459 52.3291 93.9006 52.8621C93.9511 53.3792 94.0142 53.7817 94.0899 54.0697C94.1775 54.3375 94.2924 54.7092 94.4347 55.185C94.6578 55.708 94.9403 56.0015 95.2821 56.0655C95.624 56.1295 95.9343 55.911 96.2131 55.41C96.331 55.2079 96.4388 55 96.5365 54.7861C96.63 54.5562 96.7092 54.3044 96.7741 54.0308C96.8549 53.7529 96.9223 53.5213 96.9762 53.3361C97.0419 53.1306 97.0988 52.859 97.1468 52.5214C97.2066 52.1635 97.2538 51.9201 97.2884 51.7913C97.3187 51.6465 97.3574 51.3711 97.4046 50.9653C97.4518 50.5594 97.4809 50.3122 97.4919 50.2238C97.5028 50.1354 97.5277 49.8722 97.5665 49.4344C97.6212 48.9923 97.6524 48.7531 97.66 48.7169C97.6845 48.4197 97.9582 47.997 98.4811 47.4488C99.0159 46.8805 99.3136 46.7765 99.3742 47.1369C99.3666 47.1731 99.367 47.2073 99.3754 47.2393C99.3383 48.7887 99.4034 50.3368 99.5708 51.8837C99.5758 51.9679 99.5859 52.1364 99.6011 52.389C99.6162 52.6416 99.6368 52.85 99.6629 53.0142C99.689 53.1784 99.7235 53.3746 99.7664 53.6028C99.8051 53.8151 99.8636 54.0049 99.9419 54.1725C100.02 54.3401 100.108 54.4795 100.206 54.5906C100.368 54.7532 100.518 54.8677 100.656 54.9343C100.793 55.0008 100.917 55.0193 101.029 54.9899C101.153 54.9402 101.259 54.8867 101.346 54.8295C101.446 54.752 101.543 54.6325 101.637 54.4708C101.731 54.3091 101.808 54.1778 101.867 54.0767C101.926 53.9757 101.998 53.8283 102.084 53.6346C102.186 53.4368 102.253 53.2995 102.284 53.2229C102.734 52.3345 103.141 51.9283 103.503 52.0041ZM117.437 47.0557C117.685 47.0245 117.84 47.0949 117.903 47.2667C117.981 47.4342 117.965 47.6351 117.856 47.8692C117.394 49.171 116.731 50.3549 115.865 51.4208C114.995 52.4708 113.968 53.3482 112.785 54.0529C112.187 54.3812 111.666 54.5441 111.22 54.5416C110.775 54.539 110.398 54.4413 110.091 54.2484C109.8 54.0513 109.565 53.7452 109.388 53.3301C109.19 52.9031 109.048 52.4614 108.962 52.005C108.872 51.5326 108.821 51.0156 108.811 50.4539C108.751 46.5862 109.431 43.9355 110.85 42.5015C112.13 41.1897 113.597 41.89 115.252 44.6025C115.452 44.909 115.322 45.3882 114.86 46.0399C114.426 46.6672 114.066 46.9244 113.78 46.8115C113.724 46.7922 113.671 46.7547 113.622 46.6991C113.063 45.6145 112.232 44.798 111.13 44.2497C111.072 44.419 111.035 44.5398 111.02 44.6122C110.944 44.9061 110.864 45.2863 110.781 45.7528C110.613 46.738 110.533 47.7342 110.541 48.7413C110.545 49.0823 110.557 49.3872 110.576 49.6558C110.592 49.9084 110.632 50.2229 110.696 50.5993C110.777 50.9715 110.881 51.2692 111.008 51.4924C111.151 51.7113 111.346 51.8996 111.593 52.0571C111.852 52.1943 112.161 52.2327 112.521 52.1721C113.078 52.077 113.642 51.7831 114.214 51.2906C114.786 50.798 115.269 50.2604 115.663 49.6777C115.762 49.5321 115.921 49.2592 116.141 48.8593C116.231 48.6816 116.307 48.5161 116.369 48.3629C116.357 48.3831 116.338 48.4395 116.311 48.5321C116.656 47.5688 117.032 47.0767 117.437 47.0557ZM129.655 39.0175C129.98 38.7607 130.161 38.7645 130.196 39.0289C130.245 39.4095 130.091 39.9291 129.734 40.5875C129.592 40.83 129.464 40.9921 129.349 41.0738C128.061 42.0968 126.708 43.0343 125.29 43.8864C126.131 45.0679 126.403 46.3306 126.107 47.6745C125.826 49.0142 125.104 50.1708 123.94 51.1441C123.337 51.6451 122.682 51.9541 121.977 52.071C121.268 52.172 120.59 52.1282 119.941 51.9395C119.293 51.7508 118.691 51.4131 118.135 50.9263C117.575 50.4235 117.145 49.8269 116.843 49.1363C116.418 48.1704 116.353 47.1098 116.648 45.9545C116.942 44.7992 117.426 43.6798 118.099 42.5961C118.151 42.5312 118.239 42.5081 118.363 42.5266C118.615 41.7932 119.066 41.2299 119.715 40.8367C120.034 40.6843 120.387 40.6258 120.772 40.6612C121.158 40.6966 121.549 40.8162 121.944 41.0201C122.336 41.2079 122.712 41.434 123.072 41.6985C123.433 41.9629 123.783 42.2556 124.124 42.5764C126.111 41.6091 127.954 40.4227 129.655 39.0175ZM123.153 42.8833C122.849 42.6382 122.506 42.506 122.125 42.4865C121.739 42.4511 121.381 42.5197 121.05 42.6923C121.724 43.0452 122.425 43.1089 123.153 42.8833ZM122.021 49.6989C122.78 49.1398 123.423 48.3976 123.95 47.4722C124.492 46.5426 124.694 45.6513 124.555 44.7983C124.517 44.6543 124.471 44.5124 124.417 44.3726C122.117 45.5765 120.437 45.7616 119.38 44.9279C118.94 45.7278 118.618 46.5825 118.412 47.4919C118.317 47.9104 118.251 48.2784 118.215 48.5959C118.19 48.8931 118.243 49.2215 118.371 49.5811C118.5 49.9407 118.736 50.1866 119.079 50.3188C120.166 50.6145 121.146 50.4079 122.021 49.6989ZM148.747 36.7663C148.799 36.7015 148.818 36.7735 148.804 36.9823C148.771 37.8976 148.497 39.0988 147.982 40.5859C147.086 43.1651 146.048 44.3877 144.866 44.2537C144.597 44.2048 144.339 44.1016 144.092 43.9441C143.15 43.3537 142.38 41.9567 141.784 39.7529C140.73 42.1856 139.446 44.4906 137.932 46.6681C137.805 46.8382 137.604 46.8226 137.329 46.6213C137.05 46.404 136.8 46.1362 136.579 45.8179C136.354 45.4836 136.241 45.2482 136.239 45.1118C136.204 43.2222 135.864 41.3784 135.22 39.5805C134.955 40.1977 134.593 41.097 134.134 42.2784C133.675 43.4598 133.328 44.3208 133.094 44.8614C133.063 44.938 132.981 45.1477 132.849 45.4904C132.733 45.8289 132.628 46.1131 132.534 46.343C132.441 46.5728 132.307 46.8132 132.134 47.0642C131.972 47.2949 131.797 47.4435 131.61 47.51C131.426 47.5925 131.188 47.5011 130.896 47.2358C130.6 46.9546 130.37 46.6985 130.206 46.4678C129.969 46.0855 129.775 45.6404 129.624 45.1326C129.469 44.6088 129.366 44.0543 129.315 43.4691C129.259 42.8678 129.233 42.3104 129.234 41.7967C129.216 41.2713 129.201 40.6936 129.189 40.0637C129.189 39.4136 129.185 38.9101 129.177 38.553C129.158 38.3526 129.39 38.42 129.871 38.7552C130.543 39.2285 130.891 39.6416 130.916 39.9944C130.927 40.231 130.929 40.9232 130.923 42.071C130.929 43.1985 130.962 44.0709 131.021 44.6881C131.24 44.22 131.498 43.5105 131.796 42.5599C132.109 41.605 132.279 41.0812 132.306 40.9886C133.144 38.9037 133.74 37.4979 134.097 36.7712C134.178 36.5616 134.42 36.6349 134.822 36.9911C135.235 37.3271 135.489 37.5768 135.583 37.7402C136.534 39.4059 137.202 41.1634 137.586 43.0126C138.816 40.8587 139.926 38.642 140.917 36.3626C141.089 35.9753 141.493 36.1429 142.127 36.8655C142.425 37.215 142.596 37.4777 142.643 37.6537C142.675 37.7135 142.713 37.8234 142.755 37.9834C142.926 38.503 143.076 38.9425 143.205 39.3021C143.349 39.6575 143.54 40.1206 143.775 40.6916C144.011 41.2625 144.255 41.703 144.508 42.0129C144.76 42.3228 144.995 42.4664 145.211 42.4437C145.412 42.4251 145.627 42.266 145.856 41.9663C146.085 41.6665 146.317 41.2804 146.552 40.808C146.787 40.3357 147.02 39.8553 147.25 39.3669C147.493 38.8583 147.748 38.3636 148.015 37.8828C148.277 37.386 148.522 37.0138 148.747 36.7663ZM154.337 38.5034C154.402 38.2298 154.7 38.2883 155.23 38.6791C155.85 39.149 156.144 39.5507 156.112 39.8842C156.1 39.9044 156.096 39.9225 156.1 39.9385C155.917 40.6711 155.606 41.3771 155.169 42.0567C154.728 42.7202 154.217 43.2822 153.637 43.7428C153.052 44.1873 152.399 44.402 151.676 44.3868C150.966 44.3513 150.277 44.0107 149.611 43.3647C149.221 42.9883 148.897 42.5348 148.638 42.0043C148.394 41.4695 148.221 40.9419 148.119 40.4215C148.016 39.9011 147.957 39.318 147.941 38.6721C147.941 38.022 147.96 37.4439 147.998 36.9379C148.036 36.4318 148.103 35.8752 148.2 35.268C148.237 35.0188 148.513 35.0917 149.027 35.4866C149.663 35.9524 149.969 36.368 149.945 36.7334C149.604 38.6878 149.678 40.6271 150.167 42.5513C150.167 42.5513 150.169 42.5593 150.173 42.5753C150.178 42.5913 150.18 42.5993 150.18 42.5993L150.343 42.6335C150.434 42.5922 150.607 42.564 150.859 42.5489C151.108 42.5177 151.288 42.4874 151.4 42.458C152.15 42.1237 152.752 41.6148 153.205 40.931C153.73 40.1943 154.107 39.3851 154.337 38.5034ZM148.224 33.799C148.125 33.8765 147.99 33.8862 147.821 33.8281C147.652 33.7699 147.48 33.6697 147.306 33.5274C147.127 33.3691 146.963 33.1985 146.812 33.0158C146.661 32.833 146.565 32.6617 146.523 32.5017C146.481 32.3417 146.491 32.2192 146.554 32.1341C147.189 31.5565 147.706 31.1128 148.103 30.8029C148.489 30.5133 148.786 30.4093 148.996 30.491C149.371 30.6148 149.709 30.8595 150.01 31.225C150.308 31.5745 150.386 31.9387 150.246 32.3176C150.199 32.3984 150.091 32.4098 149.922 32.3517C149.91 32.3719 149.89 32.3942 149.862 32.4186C149.83 32.427 149.808 32.4413 149.797 32.4616C149.626 32.5921 149.399 32.7714 149.117 32.9996C148.811 33.2682 148.514 33.5347 148.224 33.799ZM164.485 34.3713C164.489 34.0622 164.561 33.8808 164.701 33.8269C164.905 33.7562 165.001 34.0901 164.99 34.8286C164.992 35.9401 164.744 36.852 164.247 37.5644C163.746 38.2607 163.031 38.5002 162.101 38.2829C161.791 38.2104 161.511 38.0875 161.26 37.914C161.009 37.7405 160.8 37.5645 160.634 37.386C160.467 37.2074 160.291 36.9628 160.107 36.652C159.939 36.3371 159.811 36.0798 159.724 35.8802C159.633 35.6647 159.503 35.3653 159.334 34.9821C159.177 34.5788 159.065 34.2832 158.998 34.0954C158.888 34.2613 158.823 34.3724 158.804 34.4288C158.534 35.03 158.16 36.078 157.68 37.5726C157.167 39.1961 156.679 40.8212 156.217 42.4481C156.121 42.7984 155.795 42.696 155.238 42.1411C154.735 41.6577 154.473 41.2817 154.454 41.013L154.271 29.4884C154.252 29.288 154.492 29.3532 154.989 29.6842C155.657 30.1415 155.997 30.5567 156.01 30.9297L156.078 35.4795C156.25 34.8353 156.391 34.328 156.498 33.9575C156.618 33.5668 156.793 33.1272 157.024 32.6388C157.267 32.1302 157.505 31.8023 157.74 31.6549C157.964 31.5278 158.188 31.503 158.414 31.5805C158.655 31.6538 158.876 31.8096 159.075 32.0479C159.291 32.282 159.46 32.5026 159.583 32.7098C159.722 32.9128 159.847 33.1279 159.958 33.3553C160.037 33.5229 160.179 33.8361 160.385 34.2951C160.591 34.754 160.756 35.1212 160.88 35.3966C161.02 35.6677 161.216 35.9583 161.469 36.2682C161.721 36.5781 161.973 36.7857 162.223 36.891C162.888 37.1436 163.431 36.9664 163.853 36.3593C164.291 35.748 164.502 35.0853 164.485 34.3713ZM175.26 30.5618C175.358 30.4161 175.573 30.4536 175.905 30.6743C176.253 30.8907 176.527 31.1522 176.727 31.4587C176.928 31.7653 176.987 32.0234 176.905 32.2331C176.716 32.4882 176.374 32.9458 175.881 33.606C175.387 34.2661 174.933 34.8816 174.519 35.4525C174.101 36.0074 173.706 36.556 173.335 37.0982C173.592 39.0493 173.782 40.7786 173.905 42.2859C173.923 42.4863 173.971 42.9271 174.047 43.6084C174.128 44.3056 174.188 44.9229 174.226 45.4601C174.285 46.0092 174.334 46.6807 174.371 47.4748C174.409 48.2689 174.39 48.9754 174.313 49.5943C174.257 50.225 174.154 50.8422 174.005 51.446C173.872 52.0455 173.641 52.5339 173.312 52.9111C172.988 53.3044 172.594 53.562 172.13 53.6841C171.458 53.8608 170.763 53.753 170.043 53.3605C169.324 52.968 168.72 52.4598 168.231 51.8358C167.742 51.2117 167.389 50.586 167.173 49.9587C166.811 48.9077 166.68 47.7617 166.782 46.5204C166.871 45.2994 167.167 44.0498 167.669 42.7716C168.187 41.4892 168.754 40.2964 169.37 39.1934C169.983 38.0743 170.714 36.8896 171.566 35.6392C171.558 35.6072 171.545 35.5592 171.528 35.4952C171.523 35.411 171.516 35.3529 171.508 35.3209C171.476 35.0042 171.408 34.5516 171.305 33.963C171.217 33.3702 171.173 33.0396 171.172 32.9714C170.958 33.8489 170.641 34.6934 170.222 35.5052C169.818 36.2445 169.311 36.8225 168.702 37.2393C168.109 37.6518 167.456 37.8324 166.741 37.781C166.038 37.7093 165.409 37.3358 164.855 36.6604C164.513 36.2713 164.246 35.7429 164.053 35.0751C163.844 34.4115 163.727 33.7067 163.702 32.9606C163.689 32.1944 163.732 31.4474 163.831 30.7199C163.947 29.9881 164.155 29.3174 164.457 28.7078C164.774 28.094 165.148 27.6279 165.577 27.3096C165.875 27.0773 166.191 26.9771 166.524 27.0091C166.87 27.0209 167.185 27.0833 167.472 27.1961C167.758 27.309 168.049 27.5061 168.346 27.7874C168.658 28.0644 168.918 28.3381 169.126 28.6085C169.35 28.8746 169.573 29.1668 169.793 29.4851C169.93 28.1833 169.982 26.8865 169.95 25.5947C169.947 25.3219 170.237 25.4167 170.82 25.879C171.359 26.3018 171.652 26.6353 171.699 26.8795C172.145 29.1574 172.536 31.4579 172.873 33.7813C173.122 33.4251 173.392 33.0546 173.684 32.6698C173.988 32.2648 174.279 31.872 174.555 31.4914C174.847 31.1066 175.082 30.7967 175.26 30.5618ZM168.499 33.9312C169.056 32.8609 169.435 31.7347 169.638 30.5524C169.314 30.3638 169.044 30.1183 168.828 29.816C168.037 28.4332 167.262 28.5771 166.504 30.2477C166.023 31.2809 165.721 32.344 165.598 33.437C165.606 33.469 165.605 33.4951 165.593 33.5153C165.519 34.6639 165.632 35.3868 165.932 35.6841C166.245 35.9612 166.648 35.9322 167.141 35.5971C167.631 35.246 168.083 34.6907 168.499 33.9312ZM172.056 50.0854C172.503 48.5992 172.698 46.9656 172.64 45.1846C172.598 43.3994 172.41 41.3532 172.077 39.0458C169.326 43.4134 168.185 47.0751 168.654 50.0308C168.785 50.8518 169.077 51.4081 169.53 51.6995C170.003 52.0027 170.488 51.9947 170.986 51.6756C171.484 51.3565 171.84 50.8264 172.056 50.0854ZM184.001 13.1739C184.496 13.8821 184.821 14.5663 184.978 15.2265C185.146 15.8665 185.188 16.5482 185.105 17.2715C185.037 17.9907 184.869 18.6849 184.601 19.3543C184.332 20.0238 184.02 20.7218 183.663 21.4485C183.323 22.171 182.958 22.8657 182.569 23.5325C182.18 24.1994 181.826 24.9 181.506 25.6343C181.185 26.3685 180.917 27.072 180.701 27.7448C180.484 28.4176 180.379 29.1212 180.383 29.8555C180.4 30.5696 180.537 31.2521 180.794 31.903C180.943 32.2744 180.763 32.7922 180.253 33.4566C179.795 34.0561 179.458 34.2729 179.244 34.107C179.219 34.0792 179.193 34.0434 179.164 33.9996C178.821 33.1491 178.63 32.2927 178.591 31.4304C178.568 30.5639 178.714 29.6532 179.027 28.6983C179.336 27.7275 179.625 26.9414 179.895 26.3402C180.165 25.739 180.578 24.9032 181.134 23.833C181.409 23.316 181.607 22.9304 181.728 22.6761C182.022 22.1026 182.263 21.5861 182.449 21.1263C182.652 20.6623 182.84 20.1083 183.013 19.4641C183.181 18.8039 183.259 18.2191 183.244 17.7097C183.242 17.18 183.127 16.6457 182.9 16.1067C182.668 15.5518 182.305 15.0827 181.811 14.6995C181.284 14.2565 180.609 13.998 179.785 13.9238C178.973 13.8294 178.196 13.8971 177.452 14.1269C176.704 14.3407 176.053 14.7259 175.498 15.2825C174.939 15.823 174.638 16.4668 174.595 17.2137C174.587 17.575 174.341 18.0073 173.858 18.5109C173.363 19.0346 173.055 19.1327 172.935 18.8051C172.909 18.7091 172.896 18.5929 172.894 18.4564C172.933 17.6935 173.156 16.9163 173.564 16.1248C173.967 15.3173 174.478 14.5927 175.096 13.9511C175.71 13.2935 176.412 12.7412 177.201 12.2941C178.002 11.8268 178.792 11.5162 179.573 11.3622C180.37 11.2039 181.159 11.2785 181.941 11.586C182.735 11.8732 183.422 12.4025 184.001 13.1739ZM180.474 34.7841C180.589 34.6343 180.766 34.5278 181.006 34.4646C181.262 34.3973 181.391 34.5 181.395 34.7729C181.347 35.4356 181.493 36.0558 181.833 36.6335C182.106 36.9552 182.012 37.476 181.551 38.1959C181.145 38.7988 180.802 39.0859 180.52 39.0573L180.399 38.9865C179.86 38.2387 179.623 37.4029 179.688 36.4792C179.716 35.8047 179.978 35.2397 180.474 34.7841Z" fill="#FF0056"/>
</g>
<defs>
<filter id="filter0_d_941_12299" x="0.357068" y="0.364258" width="198.395" height="104.428" filterUnits="userSpaceOnUse" color-interpolation-filters="sRGB">
<feFlood flood-opacity="0" result="BackgroundImageFix"/>
<feColorMatrix in="SourceAlpha" type="matrix" values="0 0 0 0 0 0 0 0 0 0 0 0 0 0 0 0 0 0 127 0" result="hardAlpha"/>
<feOffset dy="4.96324"/>
<feGaussianBlur stdDeviation="2.48162"/>
<feComposite in2="hardAlpha" operator="out"/>
<feColorMatrix type="matrix" values="0 0 0 0 0 0 0 0 0 0 0 0 0 0 0 0 0 0 0.25 0"/>
<feBlend mode="normal" in2="BackgroundImageFix" result="effect1_dropShadow_941_12299"/>
<feBlend mode="normal" in="SourceGraphic" in2="effect1_dropShadow_941_12299" result="shape"/>
</filter>
</defs>
</svg>
