<svg width="61" height="50" viewBox="0 0 61 50" fill="none" xmlns="http://www.w3.org/2000/svg">
<path d="M13 0C11.0109 0 9.10322 0.877972 7.6967 2.44078C6.29018 4.00358 5.5 6.1232 5.5 8.33333V30.5556C5.5 32.7657 6.29018 34.8853 7.6967 36.4481C9.10322 38.0109 11.0109 38.8889 13 38.8889H48C49.9891 38.8889 51.8968 38.0109 53.3033 36.4481C54.7098 34.8853 55.5 32.7657 55.5 30.5556V8.33333C55.5 6.1232 54.7098 4.00358 53.3033 2.44078C51.8968 0.877972 49.9891 0 48 0H13ZM10.5 8.33333C10.5 7.59662 10.7634 6.89008 11.2322 6.36915C11.7011 5.84821 12.337 5.55556 13 5.55556H48C48.663 5.55556 49.2989 5.84821 49.7678 6.36915C50.2366 6.89008 50.5 7.59662 50.5 8.33333V30.5556C50.5 31.2923 50.2366 31.9988 49.7678 32.5197C49.2989 33.0407 48.663 33.3333 48 33.3333H13C12.337 33.3333 11.7011 33.0407 11.2322 32.5197C10.7634 31.9988 10.5 31.2923 10.5 30.5556V8.33333ZM3 44.4444C2.33696 44.4444 1.70107 44.7371 1.23223 45.258C0.763393 45.779 0.5 46.4855 0.5 47.2222C0.5 47.9589 0.763393 48.6655 1.23223 49.1864C1.70107 49.7073 2.33696 50 3 50H58C58.663 50 59.2989 49.7073 59.7678 49.1864C60.2366 48.6655 60.5 47.9589 60.5 47.2222C60.5 46.4855 60.2366 45.779 59.7678 45.258C59.2989 44.7371 58.663 44.4444 58 44.4444H3Z" fill="#D5D5D5"/>
</svg>
