<svg width="42" height="42" viewBox="0 0 42 42" fill="none" xmlns="http://www.w3.org/2000/svg">
<path d="M18.3051 41.9984C19.418 41.7011 20.471 41.2513 21.4677 40.6641C23.2005 39.6457 24.7924 38.4415 26.0427 36.7913C26.5463 36.126 26.9654 35.4087 27.0887 34.5427C27.1979 33.7659 26.8809 33.1229 26.18 32.833C25.6588 32.6175 25.1094 32.4837 24.5811 32.283C23.595 31.9076 22.6898 31.3872 21.9115 30.629C20.8162 29.5549 20.552 28.072 21.2318 26.7042C21.4994 26.1616 21.8692 25.9757 22.4363 26.1244C22.7321 26.2025 23.0279 26.3028 23.3062 26.4292C24.1514 26.8157 24.965 26.7154 25.768 26.2917C26.49 25.9126 27.1098 25.4071 27.5747 24.7046C27.6804 24.5448 27.7931 24.3701 27.8353 24.1843C27.9938 23.519 28.4693 23.3443 29.0187 23.3332C30.276 23.3072 31.2023 23.9241 31.8327 25.0466C32.2588 25.8011 32.3821 26.6448 32.4068 27.507C32.5159 31.1754 31.5826 34.4721 29.2335 37.2447C27.8036 38.9284 26.018 40.0546 24.0176 40.8202C22.2179 41.5078 20.3513 41.8497 18.453 41.9984C18.4037 42.0021 18.3544 41.9984 18.3051 41.9984Z" fill="#F4F4F4"/>
<path d="M20.8725 0C20.8725 1.49039 20.8725 2.95477 20.8725 4.42286C21.274 4.38569 21.6508 4.33366 22.0312 4.32251C23.447 4.27791 24.81 4.56781 26.1378 5.05841C26.3385 5.13274 26.4301 5.08443 26.5498 4.91346C27.2401 3.8988 27.9445 2.8953 28.6594 1.86206C28.7827 1.96241 28.8954 2.04789 29.0081 2.14081C30.1351 3.08857 31.2551 4.04004 32.3891 4.98036C32.5511 5.11416 32.5547 5.22194 32.4807 5.40778C31.9524 6.74207 31.4277 8.07636 30.917 9.41808C30.8712 9.54073 30.8677 9.71913 30.9135 9.84178C31.6742 11.8191 32.2905 13.8447 32.5758 15.9632C32.7202 17.0336 32.773 18.1077 32.5899 19.1967C32.4561 18.5351 32.3504 17.8773 32.1849 17.2343C31.4241 14.2646 30.0612 11.6555 27.9128 9.54817C26.2469 7.91654 24.2535 6.91304 22.0664 6.31837C20.1082 5.78688 18.1219 5.6345 16.1109 5.88351C15.8327 5.91696 15.5579 5.97271 15.2586 6.01731C15.248 5.93926 15.2339 5.87236 15.2339 5.80546C15.2339 4.85028 15.2339 3.8988 15.2304 2.94362C15.2304 2.79123 15.2656 2.70203 15.4065 2.63513C17.1639 1.78401 18.9143 0.929171 20.6682 0.0743337C20.7175 0.0520335 20.7809 0.0334502 20.8725 0Z" fill="#F4F4F4"/>
<path d="M3.56926 22.579C2.62539 22.2371 1.69208 21.9063 0.758775 21.5607C0.698903 21.5384 0.624943 21.4454 0.621421 21.3785C0.410106 19.3158 0.205836 17.2493 0.00156529 15.1865C-0.00195661 15.1419 0.00156529 15.0973 0.00156529 15.0156C1.32932 15.4913 2.643 15.9633 3.98132 16.4428C4.29125 14.4283 5.21399 12.741 6.38326 11.1502C5.65423 10.0501 4.92167 8.94994 4.17502 7.82007C5.58379 6.8686 6.97846 5.92828 8.38723 4.97681C9.02821 5.56776 9.66216 6.15128 10.2961 6.73852C10.7575 7.16594 11.2118 7.60079 11.6837 8.01334C11.7823 8.09882 11.9408 8.15829 12.0676 8.15086C13.5081 8.06909 14.945 8.06166 16.382 8.21032C17.8788 8.36642 19.3509 8.63774 20.7209 9.3402C20.7949 9.37736 20.8653 9.42196 20.9252 9.4963C20.5167 9.43683 20.1117 9.35878 19.7031 9.3179C16.0896 8.96853 12.6875 9.61151 9.65863 11.8341C7.70045 13.2687 6.27056 15.2014 5.18581 17.424C4.41804 18.9924 3.87566 20.6389 3.62209 22.3895C3.61504 22.4489 3.59039 22.5047 3.56926 22.579Z" fill="#F4F4F4"/>
<path d="M15.448 39.0441C14.8422 39.9026 14.2611 40.7314 13.6694 41.5565C13.6272 41.616 13.4969 41.6532 13.4194 41.6346C12.0529 41.341 10.6864 41.0362 9.31988 40.7352C8.7282 40.6051 8.14004 40.475 7.50962 40.3375C8.36192 39.1295 9.18957 37.9476 9.99961 36.7992C9.46428 36.4052 8.91486 36.0447 8.41475 35.621C7.51314 34.8554 6.77002 33.9262 6.12551 32.9115C6.02689 32.7554 5.94237 32.7257 5.77684 32.7814C4.63222 33.1643 3.4876 33.5359 2.3148 33.9188C2.21971 33.5359 2.12462 33.1643 2.03305 32.7963C1.7196 31.5475 1.40967 30.295 1.08918 29.0462C1.0434 28.8641 1.08214 28.7786 1.23358 28.6857C2.42046 27.946 3.6003 27.1916 4.78718 26.4482C4.92806 26.359 5.00202 26.2512 5.04076 26.0803C5.53735 24.0101 6.19595 22.0031 7.16095 20.1187C7.59766 19.2713 8.10482 18.4722 8.73876 17.7735C8.78103 17.7289 8.81977 17.6806 8.86555 17.6397C8.88316 17.6248 8.90781 17.6174 8.9853 17.5802C8.91134 17.7252 8.86203 17.8218 8.81272 17.9221C7.56949 20.4718 6.97429 23.185 7.0412 26.0505C7.11516 29.3435 8.31261 32.1756 10.2778 34.677C11.6796 36.4647 13.3525 37.9068 15.3177 38.9586C15.3529 38.9809 15.3881 39.0032 15.448 39.0441Z" fill="#F4F4F4"/>
<path d="M33.1107 10.7635C33.8961 10.4104 34.6815 10.0945 35.4352 9.70427C35.8543 9.4887 36.1079 9.5556 36.4424 9.88639C37.7526 11.1835 39.098 12.4435 40.4328 13.7183C40.4785 13.7592 40.5208 13.8038 40.5948 13.8744C39.2811 14.4616 37.9956 15.0414 36.7031 15.6212C37.7103 17.2863 38.1083 19.1261 38.2281 21.0513C38.2421 21.2706 38.3654 21.2855 38.5063 21.3226C39.6157 21.5939 40.7286 21.869 41.838 22.144C41.8873 22.1552 41.9331 22.1775 42 22.2035C41.5527 23.8871 41.1125 25.5634 40.6582 27.2768C40.3835 27.2768 40.1052 27.273 39.8235 27.2768C38.6577 27.2879 37.4884 27.3065 36.3227 27.3065C36.1255 27.3065 35.9987 27.3845 35.8613 27.5258C35.2802 28.1167 34.6815 28.6965 34.0898 29.2801C34.0687 29.3024 34.037 29.3172 33.9912 29.3507C34.0194 28.7895 34.0475 28.2542 34.0757 27.719C34.0792 27.6819 34.0863 27.6447 34.0792 27.6113C33.9736 26.9014 34.2272 26.2993 34.516 25.6749C35.4669 23.6381 35.7979 21.4601 35.6888 19.2078C35.5514 16.4017 34.8153 13.7815 33.4629 11.3582C33.3502 11.1612 33.234 10.9717 33.1107 10.7635Z" fill="#F4F4F4"/>
<path d="M21.8943 37.8281C21.4752 37.6906 21.0491 37.5679 20.6335 37.4155C18.1505 36.5235 15.9564 35.1335 14.118 33.1451C11.9696 30.8184 10.5784 28.0792 10.1523 24.842C9.27886 18.1965 13.5298 13.4132 17.6786 12.0231C19.9538 11.2612 22.2324 11.3653 24.497 12.0677C25.2859 12.313 26.0431 12.655 26.818 12.9523C26.8109 12.9746 26.8003 13.0006 26.7933 13.0229C26.3953 12.9003 26.0079 12.7442 25.6029 12.6661C22.6163 12.0826 19.7636 12.4134 17.1468 14.1491C15.6253 15.1563 14.523 16.5761 13.7799 18.2857C12.6775 20.8019 12.2549 23.4482 12.5542 26.1986C12.8571 29.0121 14.0229 31.4131 15.8578 33.4573C17.5342 35.3267 19.5241 36.7168 21.7711 37.7017C21.8168 37.7203 21.8626 37.7463 21.9084 37.7649C21.9014 37.7872 21.8979 37.8058 21.8943 37.8281Z" fill="#F4F4F4"/>
<path d="M23.9294 23.8354C22.179 23.7759 20.89 22.3338 20.9569 20.4978C21.0168 18.8513 22.3516 17.3795 24.1759 17.4798C25.7467 17.569 27.0287 19.0446 26.9723 20.7542C26.9089 22.4974 25.5354 23.8911 23.9294 23.8354Z" fill="#F4F4F4"/>
</svg>
