<svg width="175" height="42" viewBox="0 0 175 42" fill="none" xmlns="http://www.w3.org/2000/svg">
<path d="M18.3049 41.9984C19.4179 41.7011 20.4709 41.2513 21.4676 40.6641C23.2004 39.6457 24.7923 38.4415 26.0426 36.7913C26.5462 36.126 26.9653 35.4087 27.0886 34.5427C27.1977 33.7659 26.8808 33.1229 26.1799 32.833C25.6587 32.6175 25.1093 32.4837 24.581 32.283C23.5948 31.9076 22.6897 31.3872 21.9114 30.629C20.8161 29.5549 20.5519 28.072 21.2316 26.7042C21.4993 26.1616 21.8691 25.9757 22.4361 26.1244C22.732 26.2025 23.0278 26.3028 23.306 26.4292C24.1513 26.8157 24.9649 26.7154 25.7679 26.2917C26.4898 25.9126 27.1097 25.4071 27.5746 24.7046C27.6802 24.5448 27.7929 24.3701 27.8352 24.1843C27.9937 23.519 28.4692 23.3443 29.0186 23.3332C30.2759 23.3072 31.2022 23.9241 31.8326 25.0466C32.2587 25.8011 32.382 26.6448 32.4066 27.507C32.5158 31.1754 31.5825 34.4721 29.2334 37.2447C27.8035 38.9284 26.0179 40.0546 24.0175 40.8202C22.2178 41.5078 20.3512 41.8497 18.4529 41.9984C18.4035 42.0021 18.3542 41.9984 18.3049 41.9984Z" fill="#F4F4F4"/>
<path d="M20.8726 0C20.8726 1.49039 20.8726 2.95477 20.8726 4.42286C21.2741 4.38569 21.6509 4.33366 22.0313 4.32251C23.4471 4.27791 24.8101 4.56781 26.1378 5.05841C26.3386 5.13274 26.4301 5.08443 26.5499 4.91346C27.2402 3.8988 27.9445 2.8953 28.6595 1.86206C28.7828 1.96241 28.8955 2.04789 29.0082 2.14081C30.1352 3.08857 31.2551 4.04004 32.3892 4.98036C32.5512 5.11416 32.5547 5.22194 32.4808 5.40778C31.9525 6.74207 31.4277 8.07636 30.917 9.41808C30.8713 9.54073 30.8677 9.71913 30.9135 9.84178C31.6742 11.8191 32.2906 13.8447 32.5759 15.9632C32.7203 17.0336 32.7731 18.1077 32.5899 19.1967C32.4561 18.5351 32.3505 17.8773 32.1849 17.2343C31.4242 14.2646 30.0612 11.6555 27.9129 9.54817C26.247 7.91654 24.2536 6.91304 22.0665 6.31837C20.1083 5.78688 18.122 5.6345 16.1109 5.88351C15.8327 5.91696 15.558 5.97271 15.2586 6.01731C15.2481 5.93926 15.234 5.87236 15.234 5.80546C15.234 4.85028 15.234 3.8988 15.2305 2.94362C15.2305 2.79123 15.2657 2.70203 15.4066 2.63513C17.164 1.78401 18.9144 0.929171 20.6683 0.0743337C20.7176 0.0520335 20.781 0.0334502 20.8726 0Z" fill="#F4F4F4"/>
<path d="M3.56926 22.579C2.62539 22.2371 1.69208 21.9063 0.758775 21.5607C0.698903 21.5384 0.624943 21.4454 0.621421 21.3785C0.410106 19.3158 0.205836 17.2493 0.00156529 15.1865C-0.00195661 15.1419 0.00156529 15.0973 0.00156529 15.0156C1.32932 15.4913 2.643 15.9633 3.98132 16.4428C4.29125 14.4283 5.21399 12.741 6.38326 11.1502C5.65423 10.0501 4.92167 8.94994 4.17502 7.82007C5.58379 6.8686 6.97846 5.92828 8.38723 4.97681C9.02821 5.56776 9.66216 6.15128 10.2961 6.73852C10.7575 7.16594 11.2118 7.60079 11.6837 8.01334C11.7823 8.09882 11.9408 8.15829 12.0676 8.15086C13.5081 8.06909 14.945 8.06166 16.382 8.21032C17.8788 8.36642 19.3509 8.63774 20.7209 9.3402C20.7949 9.37736 20.8653 9.42196 20.9252 9.4963C20.5167 9.43683 20.1117 9.35878 19.7031 9.3179C16.0896 8.96853 12.6875 9.61151 9.65863 11.8341C7.70045 13.2687 6.27056 15.2014 5.18581 17.424C4.41804 18.9924 3.87566 20.6389 3.62209 22.3895C3.61504 22.4489 3.59039 22.5047 3.56926 22.579Z" fill="#F4F4F4"/>
<path d="M15.4479 39.0441C14.8422 39.9026 14.2611 40.7314 13.6694 41.5565C13.6271 41.616 13.4968 41.6532 13.4193 41.6346C12.0528 41.341 10.6863 41.0362 9.31982 40.7352C8.72814 40.6051 8.13998 40.475 7.50956 40.3375C8.36186 39.1295 9.18951 37.9476 9.99954 36.7992C9.46421 36.4052 8.9148 36.0447 8.41469 35.621C7.51308 34.8554 6.76996 33.9262 6.12545 32.9115C6.02683 32.7554 5.94231 32.7257 5.77678 32.7814C4.63216 33.1643 3.48754 33.5359 2.31474 33.9188C2.21965 33.5359 2.12456 33.1643 2.03299 32.7963C1.71954 31.5475 1.40961 30.295 1.08912 29.0462C1.04334 28.8641 1.08208 28.7786 1.23352 28.6857C2.4204 27.946 3.60024 27.1916 4.78712 26.4482C4.928 26.359 5.00196 26.2512 5.0407 26.0803C5.53729 24.0101 6.19589 22.0031 7.16089 20.1187C7.5976 19.2713 8.10476 18.4722 8.7387 17.7735C8.78096 17.7289 8.81971 17.6806 8.86549 17.6397C8.8831 17.6248 8.90775 17.6174 8.98524 17.5802C8.91128 17.7252 8.86197 17.8218 8.81266 17.9221C7.56943 20.4718 6.97423 23.185 7.04114 26.0505C7.1151 29.3435 8.31255 32.1756 10.2778 34.677C11.6795 36.4647 13.3524 37.9068 15.3176 38.9586C15.3528 38.9809 15.3881 39.0032 15.4479 39.0441Z" fill="#F4F4F4"/>
<path d="M33.1106 10.7635C33.896 10.4104 34.6814 10.0945 35.4351 9.70427C35.8542 9.4887 36.1077 9.5556 36.4423 9.88639C37.7525 11.1835 39.0978 12.4435 40.4326 13.7183C40.4784 13.7592 40.5207 13.8038 40.5946 13.8744C39.281 14.4616 37.9955 15.0414 36.7029 15.6212C37.7102 17.2863 38.1082 19.1261 38.2279 21.0513C38.242 21.2706 38.3653 21.2855 38.5062 21.3226C39.6156 21.5939 40.7285 21.869 41.8379 22.144C41.8872 22.1552 41.933 22.1775 41.9999 22.2035C41.5526 23.8871 41.1124 25.5634 40.658 27.2768C40.3833 27.2768 40.1051 27.273 39.8234 27.2768C38.6576 27.2879 37.4883 27.3065 36.3226 27.3065C36.1253 27.3065 35.9986 27.3845 35.8612 27.5258C35.2801 28.1167 34.6814 28.6965 34.0897 29.2801C34.0686 29.3024 34.0369 29.3172 33.9911 29.3507C34.0192 28.7895 34.0474 28.2542 34.0756 27.719C34.0791 27.6819 34.0862 27.6447 34.0791 27.6113C33.9735 26.9014 34.227 26.2993 34.5158 25.6749C35.4668 23.6381 35.7978 21.4601 35.6886 19.2078C35.5513 16.4017 34.8152 13.7815 33.4628 11.3582C33.3501 11.1612 33.2339 10.9717 33.1106 10.7635Z" fill="#F4F4F4"/>
<path d="M21.8943 37.8281C21.4752 37.6906 21.049 37.5679 20.6334 37.4155C18.1505 36.5235 15.9563 35.1335 14.1179 33.1451C11.9695 30.8184 10.5784 28.0792 10.1522 24.842C9.2788 18.1965 13.5297 13.4132 17.6785 12.0231C19.9537 11.2612 22.2324 11.3653 24.497 12.0677C25.2859 12.313 26.0431 12.655 26.8179 12.9523C26.8109 12.9746 26.8003 13.0006 26.7932 13.0229C26.3953 12.9003 26.0079 12.7442 25.6028 12.6661C22.6163 12.0826 19.7635 12.4134 17.1467 14.1491C15.6253 15.1563 14.5229 16.5761 13.7798 18.2857C12.6774 20.8019 12.2548 23.4482 12.5542 26.1986C12.8571 29.0121 14.0228 31.4131 15.8577 33.4573C17.5341 35.3267 19.524 36.7168 21.771 37.7017C21.8168 37.7203 21.8626 37.7463 21.9084 37.7649C21.9013 37.7872 21.8978 37.8058 21.8943 37.8281Z" fill="#F4F4F4"/>
<path d="M23.9293 23.8354C22.1789 23.7759 20.8899 22.3338 20.9568 20.4978C21.0167 18.8513 22.3515 17.3795 24.1759 17.4798C25.7466 17.569 27.0286 19.0446 26.9723 20.7542C26.9089 22.4974 25.5353 23.8911 23.9293 23.8354Z" fill="#F4F4F4"/>
<path d="M59.036 26V16.2H60.212V26H59.036ZM62.4649 26V16.2H63.6409L68.8629 24.054V16.2H70.0389V26H68.8629L63.6409 18.146V26H62.4649ZM72.2923 26V16.2H73.4683L78.6903 24.054V16.2H79.8663V26H78.6903L73.4683 18.146V26H72.2923ZM86.5716 26.168C85.6103 26.168 84.7656 25.958 84.0376 25.538C83.3189 25.1087 82.7543 24.5113 82.3436 23.746C81.9423 22.9807 81.7416 22.0987 81.7416 21.1C81.7416 20.1013 81.9423 19.224 82.3436 18.468C82.7543 17.7027 83.3189 17.1053 84.0376 16.676C84.7656 16.2467 85.6103 16.032 86.5716 16.032C87.5423 16.032 88.3869 16.2467 89.1056 16.676C89.8336 17.1053 90.3983 17.7027 90.7996 18.468C91.2009 19.224 91.4016 20.1013 91.4016 21.1C91.4016 22.0987 91.2009 22.9807 90.7996 23.746C90.3983 24.5113 89.8336 25.1087 89.1056 25.538C88.3869 25.958 87.5423 26.168 86.5716 26.168ZM86.5716 25.132C87.2903 25.132 87.9203 24.9733 88.4616 24.656C89.0123 24.3293 89.4369 23.8673 89.7356 23.27C90.0436 22.6633 90.1976 21.94 90.1976 21.1C90.1976 20.26 90.0436 19.5413 89.7356 18.944C89.4369 18.3467 89.0123 17.8893 88.4616 17.572C87.9203 17.2453 87.2903 17.082 86.5716 17.082C85.8529 17.082 85.2183 17.2453 84.6676 17.572C84.1263 17.8893 83.7016 18.3467 83.3936 18.944C83.0949 19.5413 82.9456 20.26 82.9456 21.1C82.9456 21.94 83.0949 22.6633 83.3936 23.27C83.7016 23.8673 84.1263 24.3293 84.6676 24.656C85.2183 24.9733 85.8529 25.132 86.5716 25.132ZM95.8443 26L92.1623 16.2H93.4363L96.5303 24.754L99.6523 16.2H100.898L97.2163 26H95.8443ZM102.417 26V16.2H103.593V26H102.417ZM108.968 26.168C108.249 26.168 107.624 26.0373 107.092 25.776C106.56 25.5147 106.149 25.1507 105.86 24.684C105.57 24.2173 105.426 23.676 105.426 23.06H106.658C106.658 23.4427 106.746 23.7973 106.924 24.124C107.101 24.4413 107.358 24.698 107.694 24.894C108.039 25.0807 108.464 25.174 108.968 25.174C109.63 25.174 110.144 25.0153 110.508 24.698C110.872 24.3807 111.054 23.984 111.054 23.508C111.054 23.116 110.97 22.8033 110.802 22.57C110.634 22.3273 110.405 22.1313 110.116 21.982C109.836 21.8327 109.509 21.702 109.136 21.59C108.772 21.478 108.389 21.352 107.988 21.212C107.232 20.9507 106.672 20.6287 106.308 20.246C105.944 19.854 105.762 19.3453 105.762 18.72C105.752 18.1973 105.874 17.7353 106.126 17.334C106.378 16.9233 106.732 16.606 107.19 16.382C107.656 16.1487 108.207 16.032 108.842 16.032C109.467 16.032 110.008 16.1487 110.466 16.382C110.932 16.6153 111.292 16.9373 111.544 17.348C111.805 17.7587 111.94 18.2253 111.95 18.748H110.718C110.718 18.4773 110.648 18.2113 110.508 17.95C110.368 17.6793 110.153 17.46 109.864 17.292C109.584 17.124 109.229 17.04 108.8 17.04C108.268 17.0307 107.829 17.166 107.484 17.446C107.148 17.726 106.98 18.1133 106.98 18.608C106.98 19.028 107.096 19.35 107.33 19.574C107.572 19.798 107.908 19.9847 108.338 20.134C108.767 20.274 109.262 20.4373 109.822 20.624C110.288 20.792 110.708 20.988 111.082 21.212C111.455 21.436 111.744 21.7253 111.95 22.08C112.164 22.4347 112.272 22.8873 112.272 23.438C112.272 23.9047 112.15 24.348 111.908 24.768C111.665 25.1787 111.296 25.5147 110.802 25.776C110.316 26.0373 109.705 26.168 108.968 26.168ZM114.115 26V16.2H115.291V26H114.115ZM121.995 26.168C121.034 26.168 120.189 25.958 119.461 25.538C118.743 25.1087 118.178 24.5113 117.767 23.746C117.366 22.9807 117.165 22.0987 117.165 21.1C117.165 20.1013 117.366 19.224 117.767 18.468C118.178 17.7027 118.743 17.1053 119.461 16.676C120.189 16.2467 121.034 16.032 121.995 16.032C122.966 16.032 123.811 16.2467 124.529 16.676C125.257 17.1053 125.822 17.7027 126.223 18.468C126.625 19.224 126.825 20.1013 126.825 21.1C126.825 22.0987 126.625 22.9807 126.223 23.746C125.822 24.5113 125.257 25.1087 124.529 25.538C123.811 25.958 122.966 26.168 121.995 26.168ZM121.995 25.132C122.714 25.132 123.344 24.9733 123.885 24.656C124.436 24.3293 124.861 23.8673 125.159 23.27C125.467 22.6633 125.621 21.94 125.621 21.1C125.621 20.26 125.467 19.5413 125.159 18.944C124.861 18.3467 124.436 17.8893 123.885 17.572C123.344 17.2453 122.714 17.082 121.995 17.082C121.277 17.082 120.642 17.2453 120.091 17.572C119.55 17.8893 119.125 18.3467 118.817 18.944C118.519 19.5413 118.369 20.26 118.369 21.1C118.369 21.94 118.519 22.6633 118.817 23.27C119.125 23.8673 119.55 24.3293 120.091 24.656C120.642 24.9733 121.277 25.132 121.995 25.132ZM128.697 26V16.2H129.873L135.095 24.054V16.2H136.271V26H135.095L129.873 18.146V26H128.697ZM142.25 26V25.174C142.913 24.6513 143.538 24.124 144.126 23.592C144.724 23.0507 145.251 22.5187 145.708 21.996C146.175 21.4733 146.539 20.96 146.8 20.456C147.071 19.952 147.206 19.4667 147.206 19C147.206 18.6547 147.146 18.3327 147.024 18.034C146.912 17.7353 146.726 17.4973 146.464 17.32C146.203 17.1333 145.848 17.04 145.4 17.04C144.971 17.04 144.612 17.138 144.322 17.334C144.033 17.5207 143.814 17.7727 143.664 18.09C143.524 18.4073 143.454 18.748 143.454 19.112H142.32C142.32 18.468 142.456 17.9173 142.726 17.46C142.997 16.9933 143.366 16.6387 143.832 16.396C144.299 16.1533 144.826 16.032 145.414 16.032C146.282 16.032 146.992 16.2793 147.542 16.774C148.102 17.2593 148.382 17.9873 148.382 18.958C148.382 19.5367 148.238 20.1107 147.948 20.68C147.659 21.24 147.29 21.786 146.842 22.318C146.394 22.8407 145.914 23.3307 145.4 23.788C144.896 24.2453 144.425 24.656 143.986 25.02H148.718V26H142.25ZM150.591 26V16.2H151.767V20.638L155.855 16.2H157.339L153.699 20.106L157.395 26H155.967L152.859 21.016L151.767 22.178V26H150.591ZM158.761 26V25.174C159.423 24.6513 160.049 24.124 160.637 23.592C161.234 23.0507 161.761 22.5187 162.219 21.996C162.685 21.4733 163.049 20.96 163.311 20.456C163.581 19.952 163.717 19.4667 163.717 19C163.717 18.6547 163.656 18.3327 163.535 18.034C163.423 17.7353 163.236 17.4973 162.975 17.32C162.713 17.1333 162.359 17.04 161.911 17.04C161.481 17.04 161.122 17.138 160.833 17.334C160.543 17.5207 160.324 17.7727 160.175 18.09C160.035 18.4073 159.965 18.748 159.965 19.112H158.831C158.831 18.468 158.966 17.9173 159.237 17.46C159.507 16.9933 159.876 16.6387 160.343 16.396C160.809 16.1533 161.337 16.032 161.925 16.032C162.793 16.032 163.502 16.2793 164.053 16.774C164.613 17.2593 164.893 17.9873 164.893 18.958C164.893 19.5367 164.748 20.1107 164.459 20.68C164.169 21.24 163.801 21.786 163.353 22.318C162.905 22.8407 162.424 23.3307 161.911 23.788C161.407 24.2453 160.935 24.656 160.497 25.02H165.229V26H158.761ZM166.947 26V25.174C167.61 24.6513 168.235 24.124 168.823 23.592C169.421 23.0507 169.948 22.5187 170.405 21.996C170.872 21.4733 171.236 20.96 171.497 20.456C171.768 19.952 171.903 19.4667 171.903 19C171.903 18.6547 171.843 18.3327 171.721 18.034C171.609 17.7353 171.423 17.4973 171.161 17.32C170.9 17.1333 170.545 17.04 170.097 17.04C169.668 17.04 169.309 17.138 169.019 17.334C168.73 17.5207 168.511 17.7727 168.361 18.09C168.221 18.4073 168.151 18.748 168.151 19.112H167.017C167.017 18.468 167.153 17.9173 167.423 17.46C167.694 16.9933 168.063 16.6387 168.529 16.396C168.996 16.1533 169.523 16.032 170.111 16.032C170.979 16.032 171.689 16.2793 172.239 16.774C172.799 17.2593 173.079 17.9873 173.079 18.958C173.079 19.5367 172.935 20.1107 172.645 20.68C172.356 21.24 171.987 21.786 171.539 22.318C171.091 22.8407 170.611 23.3307 170.097 23.788C169.593 24.2453 169.122 24.656 168.683 25.02H173.415V26H166.947Z" fill="#F4F4F4"/>
</svg>
