<svg width="107" height="107" viewBox="0 0 107 107" fill="none" xmlns="http://www.w3.org/2000/svg">
<path fill-rule="evenodd" clip-rule="evenodd" d="M23.7029 8.98829C32.4736 3.12794 42.785 0 53.3334 0C67.4782 0 81.0438 5.61903 91.0457 15.621C101.048 25.6229 106.667 39.1885 106.667 53.3333C106.667 63.8817 103.539 74.1931 97.6784 82.9638C91.8181 91.7344 83.4885 98.5702 73.7431 102.607C63.9977 106.644 53.2742 107.7 42.9285 105.642C32.5829 103.584 23.0798 98.5045 15.621 91.0457C8.1622 83.5869 3.08269 74.0838 1.02481 63.7382C-1.03307 53.3925 0.0231086 42.6689 4.05978 32.9235C8.09646 23.1782 14.9323 14.8486 23.7029 8.98829ZM83.1999 40.9336C83.1999 44.2473 80.5137 46.9336 77.2 46.9336C73.8862 46.9336 71.2 44.2473 71.2 40.9336C71.2 37.6199 73.8862 34.9336 77.2 34.9336C80.5137 34.9336 83.1999 37.6199 83.1999 40.9336ZM31.3667 46.9336C34.6804 46.9336 37.3667 44.2473 37.3667 40.9336C37.3667 37.6199 34.6804 34.9336 31.3667 34.9336C28.053 34.9336 25.3667 37.6199 25.3667 40.9336C25.3667 44.2473 28.053 46.9336 31.3667 46.9336ZM40.1216 63.3366C44.3718 61.1448 49.0844 60.0008 53.8665 60C58.5323 59.9987 63.1341 61.0857 67.3061 63.1746C71.4782 65.2636 75.1055 68.2968 77.8998 72.0333C78.4303 72.7406 78.658 73.6296 78.533 74.5047C78.408 75.3799 77.9404 76.1696 77.2331 76.7C76.5259 77.2304 75.6369 77.4582 74.7617 77.3332C73.8866 77.2081 73.0969 76.7406 72.5665 76.0333C70.3669 73.0895 67.5031 70.7068 64.2083 69.0793C60.9135 67.4518 57.2809 66.6255 53.6063 66.6678C49.9318 66.71 46.3191 67.6195 43.0626 69.3223C39.8061 71.0251 36.9978 73.473 34.8665 76.4667C34.3537 77.1872 33.5758 77.6745 32.7037 77.8214C31.8317 77.9683 30.937 77.7627 30.2165 77.25C29.496 76.7372 29.0087 75.9593 28.8618 75.0872C28.7149 74.2152 28.9204 73.3205 29.4332 72.6C32.2067 68.7045 35.8714 65.5284 40.1216 63.3366Z" fill="white"/>
</svg>
