<svg width="60" height="50" viewBox="0 0 60 50" fill="none" xmlns="http://www.w3.org/2000/svg">
<path d="M29.1088 12.7215C29.7868 12.0919 30.0542 11.1026 29.7009 10.2232C29.4812 9.69352 29.2425 9.17386 28.9751 8.6742L28.6791 8.13456C28.3926 7.63489 28.0775 7.14522 27.7433 6.67554C27.199 5.91604 26.2441 5.66621 25.3847 5.96601L22.6918 6.89539C21.6701 6.01598 20.4956 5.29646 19.2351 4.80678L18.6526 1.90872C18.4712 0.979345 17.7836 0.23984 16.886 0.129913C16.2367 0.0399733 15.5873 0 14.9285 0C14.2696 0 13.6202 0.0399732 12.9805 0.11992C12.0828 0.229846 11.3953 0.979345 11.2139 1.89873L10.6314 4.80678C9.36136 5.30645 8.19638 6.01598 7.17463 6.89539L4.47224 5.976C3.61283 5.6762 2.65792 5.92604 2.11363 6.68553C1.77941 7.15521 1.46429 7.64489 1.16827 8.14455L0.881798 8.6742C0.614424 9.17386 0.375698 9.69352 0.15607 10.2332C-0.197245 11.1026 0.0701283 12.0919 0.748111 12.7315L2.868 14.7102C2.76296 15.3797 2.70567 16.0792 2.70567 16.7888C2.70567 17.4983 2.76296 18.1978 2.868 18.8774L0.748111 20.856C0.0701283 21.4856 -0.197245 22.475 0.15607 23.3544C0.375698 23.884 0.614424 24.4037 0.881798 24.9133L1.16827 25.433C1.45474 25.9426 1.76986 26.4223 2.11363 26.892C2.65792 27.6515 3.61283 27.9013 4.47224 27.6015L7.16508 26.6722C8.18683 27.5516 9.36136 28.2711 10.6218 28.7608L11.2043 31.6688C11.3858 32.5982 12.0733 33.3377 12.9709 33.4476C13.6107 33.5276 14.26 33.5675 14.9189 33.5675C15.5778 33.5675 16.2271 33.5276 16.8669 33.4476C17.7645 33.3377 18.4521 32.5882 18.6335 31.6688L19.216 28.7608C20.486 28.2611 21.651 27.5516 22.6727 26.6722L25.3656 27.6015C26.225 27.9013 27.1799 27.6515 27.7242 26.892C28.0584 26.4223 28.3735 25.9426 28.66 25.433L28.956 24.8934C29.2234 24.3937 29.4621 23.874 29.6818 23.3444C30.0351 22.475 29.7677 21.4856 29.0897 20.8461L26.9698 18.8674C27.0749 18.1878 27.1322 17.4883 27.1322 16.7788C27.1322 16.0693 27.0749 15.3697 26.9698 14.6902L29.0897 12.7115L29.1088 12.7215ZM19.512 16.7888C19.512 19.437 17.459 21.5856 14.9285 21.5856C12.398 21.5856 10.3449 19.437 10.3449 16.7888C10.3449 14.1405 12.398 11.992 14.9285 11.992C17.459 11.992 19.512 14.1405 19.512 16.7888ZM47.8441 49.2171C48.4456 49.9266 49.391 50.2064 50.2313 49.8367C50.7374 49.6068 51.234 49.357 51.7114 49.0772L52.2271 48.7674C52.7045 48.4676 53.1724 48.1378 53.6212 47.788C54.347 47.2184 54.5857 46.2191 54.2992 45.3197L53.4112 42.5016C54.2515 41.4323 54.939 40.2031 55.4069 38.884L58.1857 38.2744C59.0737 38.0845 59.7804 37.365 59.8854 36.4256C59.9618 35.7561 60 35.0765 60 34.387C60 33.6975 59.9618 33.0179 59.8854 32.3484C59.7804 31.409 59.0642 30.6895 58.1857 30.4996L55.4069 29.88C54.9295 28.5509 54.2515 27.3317 53.4112 26.2624L54.2992 23.4443C54.5857 22.5449 54.347 21.5456 53.6212 20.976C53.1724 20.6262 52.7045 20.2964 52.2271 19.9866L51.721 19.6868C51.2435 19.407 50.747 19.1572 50.2313 18.9273C49.4006 18.5576 48.4552 18.8374 47.8441 19.5469L45.9533 21.7654C45.304 21.6555 44.6356 21.5956 43.9576 21.5956C43.2796 21.5956 42.6112 21.6555 41.9618 21.7654L40.0711 19.5469C39.4695 18.8374 38.5242 18.5576 37.6839 18.9273C37.1778 19.1572 36.6812 19.407 36.1942 19.6868L35.6977 19.9866C35.2107 20.2864 34.7523 20.6162 34.3035 20.976C33.5778 21.5456 33.339 22.5449 33.6255 23.4443L34.5136 26.2624C33.6733 27.3317 32.9857 28.5609 32.5178 29.88L29.739 30.4796C28.851 30.6695 28.1444 31.389 28.0393 32.3284C27.9629 32.9979 27.9247 33.6775 27.9247 34.367C27.9247 35.0565 27.9629 35.7361 28.0393 36.4057C28.1444 37.345 28.8605 38.0645 29.739 38.2544L32.5178 38.864C32.9953 40.1931 33.6733 41.4123 34.5136 42.4816L33.6255 45.2997C33.339 46.1991 33.5778 47.1984 34.3035 47.7681C34.7523 48.1178 35.2107 48.4476 35.6977 48.7474L36.2133 49.0572C36.6908 49.337 37.1873 49.5868 37.6934 49.8167C38.5242 50.1864 39.4695 49.9066 40.0807 49.1971L41.9714 46.9786C42.6207 47.0885 43.2892 47.1485 43.9671 47.1485C44.6451 47.1485 45.3136 47.0885 45.9629 46.9786L47.8536 49.1971L47.8441 49.2171ZM43.9576 39.1738C41.4271 39.1738 39.374 37.0252 39.374 34.377C39.374 31.7288 41.4271 29.5802 43.9576 29.5802C46.4881 29.5802 48.5411 31.7288 48.5411 34.377C48.5411 37.0252 46.4881 39.1738 43.9576 39.1738Z" fill="#D5D5D5"/>
</svg>
