<svg width="60" height="50" viewBox="0 0 60 50" fill="none" xmlns="http://www.w3.org/2000/svg">
<path d="M27.1606 32.2336H17.0045C16.4035 32.2336 15.9168 32.7155 15.9168 33.3106V48.9231C15.9168 49.5181 16.4035 50 17.0045 50H27.1606C27.7617 50 28.2476 49.5181 28.2476 48.9231V33.3098C28.2476 32.7148 27.7609 32.2336 27.1606 32.2336ZM42.9962 0H32.8401C32.2391 0 31.7524 0.481885 31.7524 1.07695V48.9223C31.7524 49.5174 32.2391 49.9993 32.8401 49.9993H42.9962C43.5972 49.9993 44.0839 49.5174 44.0839 48.9223V1.07695C44.0839 0.481885 43.5972 0 42.9962 0ZM58.913 14.5356H48.7569C48.1559 14.5356 47.6692 15.0174 47.6692 15.6125V48.9223C47.6692 49.5174 48.1559 49.9993 48.7569 49.9993H58.9123C59.5133 49.9993 60 49.5174 60 48.9223V15.6125C60 15.0182 59.5133 14.5356 58.913 14.5356ZM11.2438 14.5356H1.08772C0.486706 14.5356 0 15.0174 0 15.6125V48.9223C0 49.5174 0.486706 49.9993 1.08772 49.9993H11.2438C11.8449 49.9993 12.3316 49.5174 12.3316 48.9223V15.6125C12.3316 15.0182 11.8449 14.5356 11.2438 14.5356Z" fill="#D5D5D5"/>
</svg>
