<svg width="120" height="120" viewBox="0 0 120 120" fill="none" xmlns="http://www.w3.org/2000/svg">
<path d="M60 0C48.1331 0 36.5328 3.51894 26.6658 10.1118C16.7989 16.7047 9.10851 26.0754 4.56725 37.039C0.0259969 48.0025 -1.1622 60.0665 1.15291 71.7054C3.46802 83.3443 9.18247 94.0352 17.5736 102.426C25.9648 110.818 36.6557 116.532 48.2946 118.847C59.9335 121.162 71.9974 119.974 82.961 115.433C93.9246 110.891 103.295 103.201 109.888 93.3342C116.481 83.4672 120 71.8669 120 60C120 44.087 113.679 28.8258 102.426 17.5736C91.1742 6.32141 75.913 0 60 0ZM99.1875 39.8625L49.9125 89.1L20.8125 60C19.818 59.0054 19.2592 57.6565 19.2592 56.25C19.2592 54.8435 19.818 53.4945 20.8125 52.5C21.8071 51.5054 23.156 50.9467 24.5625 50.9467C25.969 50.9467 27.318 51.5054 28.3125 52.5L49.9875 74.175L91.7625 32.4375C92.255 31.945 92.8396 31.5544 93.483 31.2879C94.1264 31.0214 94.8161 30.8842 95.5125 30.8842C96.2089 30.8842 96.8986 31.0214 97.542 31.2879C98.1854 31.5544 98.77 31.945 99.2625 32.4375C99.755 32.9299 100.146 33.5146 100.412 34.158C100.679 34.8014 100.816 35.4911 100.816 36.1875C100.816 36.8839 100.679 37.5736 100.412 38.217C100.146 38.8604 99.755 39.445 99.2625 39.9375L99.1875 39.8625Z" fill="white"/>
</svg>
